<?xml version="1.0" standalone="no"?><!DOCTYPE svg PUBLIC "-//W3C//DTD SVG 1.1//EN" "http://www.w3.org/Graphics/SVG/1.1/DTD/svg11.dtd"><svg t="1741696967944" class="icon" viewBox="0 0 1024 1024" version="1.1" xmlns="http://www.w3.org/2000/svg" p-id="6148" xmlns:xlink="http://www.w3.org/1999/xlink" width="200" height="200"><path d="M382.72 679.04L663.68 512 382.72 344.96z" p-id="6149" fill="#13227a"></path><path d="M512 0C229.76 0 0 229.76 0 512s229.76 512 512 512 512-229.76 512-512S794.24 0 512 0z m230.4 539.52l-375.04 223.36c-5.12 3.2-10.88 4.48-16.64 4.48-5.76 0-10.88-1.92-16-4.48-9.6-5.12-16-16-16-27.52V288c0-11.52 5.76-21.76 16-27.52 9.6-5.12 22.4-5.12 32 0.64L742.4 484.48c9.6 5.76 15.36 16 15.36 27.52s-5.76 21.76-15.36 27.52z" p-id="6150" fill="#13227a"></path></svg>